# xmcd
#
# Track frame offsets:
#	150
#	19070
#	36232
#	50347
#	63090
#	78477
#	91910
#	106632
#	118575
#	133990
#	169370
#
# Disc length: 2460 seconds
#
# Revision: 4
# Processed by: cddbd v1.5.2PL0 Copyright (c) Steve Scherf et al.
# Submitted via: audiograbber 1.83.01
#
DISCID=8a099a0b
DTITLE=Soundtrack - The Blues Brothers
DYEAR=1980
DGENRE=Blues
TTITLE0=Jake - She Caught The Katy
TTITLE1=Instrumental - Peter Gunn Theme
TTITLE2=Jake - Gimme Some Lovin'
TTITLE3=Ray Charles, Jake and Elwood - Shake A Tail Feather
TTITLE4=Jake and Elwood - Everybody Needs Somebody To Love
TTITLE5=James Brown and Rev James Cleveland Choir - The Old Landmark
TTITLE6=Aretha Franklin - Think
TTITLE7=Elwood and Jake - Theme From Rawhide
TTITLE8=Cab Calloway - Minnie The Moocher
TTITLE9=Elwood and Jake - Sweet Home Chicago
TTITLE10=Jake - Jailhouse Rock
EXTD=Movie 1980
EXTT0=
EXTT1=
EXTT2=
EXTT3=
EXTT4=
EXTT5=
EXTT6=
EXTT7=
EXTT8=
EXTT9=
EXTT10=
PLAYORDER=
